<svg width="32" height="32" viewBox="0 0 32 32" fill="none" xmlns="http://www.w3.org/2000/svg">
<path d="M18.7649 29.3333C19.757 29.3333 20.5686 28.5333 20.5686 27.5556V26.6667H23.2923C23.139 26.9333 23.0398 27.2267 23.0398 27.5556C23.0398 28.5333 23.8514 29.3333 24.8435 29.3333C25.8355 29.3333 26.6472 28.5333 26.6472 27.5556C26.6472 27.2267 26.548 26.9156 26.3857 26.6489C27.2875 26.5511 28 25.8045 28 24.8889V7.11112C28 6.13334 27.1883 5.33334 26.1963 5.33334H23.9416V4.44445C23.9416 3.46667 23.1299 2.66667 22.1379 2.66667H16.7267C15.7347 2.66667 14.923 3.46667 14.923 4.44445V5.33334H12.6683C11.6763 5.33334 10.8646 6.13334 10.8646 7.11112V16.8889H9.16008C8.16803 16.8889 7.35635 17.6889 7.35635 18.6667V19.2H4.47039C3.47834 19.2 2.66667 20 2.66667 20.9778V27.5556C2.66667 28.5333 3.47834 29.3333 4.47039 29.3333H18.7649ZM17.0243 28.4444H6.20197V24.4445C6.20197 23.9556 6.60781 23.5556 7.10383 23.5556H16.1225C16.6185 23.5556 17.0243 23.9556 17.0243 24.4445V28.4444ZM20.5686 25.7778V20.9778C20.5686 20 19.757 19.2 18.7649 19.2H15.879V18.6667C15.879 17.8222 15.2747 17.1111 14.4721 16.9333V16C14.4721 15.5111 14.8779 15.1111 15.3739 15.1111H23.4907C23.9867 15.1111 24.3925 15.5111 24.3925 16V25.7778H20.5686ZM24.8435 28.4444C24.3475 28.4444 23.9416 28.0444 23.9416 27.5556C23.9416 27.0667 24.3475 26.6667 24.8435 26.6667C25.3395 26.6667 25.7453 27.0667 25.7453 27.5556C25.7453 28.0444 25.3395 28.4444 24.8435 28.4444ZM15.8248 4.44445C15.8248 3.95556 16.2307 3.55556 16.7267 3.55556H22.1379C22.6339 3.55556 23.0398 3.95556 23.0398 4.44445V5.33334H15.8248V4.44445ZM11.7665 7.11112C11.7665 6.62223 12.1723 6.22223 12.6683 6.22223H26.1963C26.6923 6.22223 27.0981 6.62223 27.0981 7.11112V24.8889C27.0981 25.3778 26.6923 25.7778 26.1963 25.7778H25.2944V16C25.2944 15.0222 24.4827 14.2222 23.4907 14.2222H15.3739C14.3819 14.2222 13.5702 15.0222 13.5702 16V16.8889H11.7665V7.11112ZM8.25822 18.6667C8.25822 18.1778 8.66406 17.7778 9.16008 17.7778H14.0752C14.2195 17.7778 14.3458 17.8222 14.4721 17.8756C14.7697 18.0178 14.9771 18.32 14.9771 18.6667V19.2H8.25822V18.6667ZM3.56853 27.5556V20.9778C3.56853 20.4889 3.97437 20.0889 4.47039 20.0889H18.7649C19.2609 20.0889 19.6668 20.4889 19.6668 20.9778V27.5556C19.6668 28.0444 19.2609 28.4444 18.7649 28.4444H17.9262V24.4444C17.9262 23.4667 17.1145 22.6667 16.1225 22.6667H7.10383C6.11178 22.6667 5.30011 23.4667 5.30011 24.4444V28.4444H4.47039C3.97437 28.4444 3.56853 28.0444 3.56853 27.5556Z" fill="#1C73E8"/>
<path d="M15.3739 12.5778H23.4907C24.4827 12.5778 25.2944 11.7778 25.2944 10.8V9.02223C25.2944 8.04445 24.4827 7.24445 23.4907 7.24445H15.3739C14.3819 7.24445 13.5702 8.04445 13.5702 9.02223V10.8C13.5702 11.7778 14.3819 12.5778 15.3739 12.5778ZM14.4721 9.02223C14.4721 8.53334 14.8779 8.13334 15.3739 8.13334H23.4907C23.9867 8.13334 24.3925 8.53334 24.3925 9.02223V10.8C24.3925 11.2889 23.9867 11.6889 23.4907 11.6889H15.3739C14.8779 11.6889 14.4721 11.2889 14.4721 10.8V9.02223Z" fill="#1C73E8"/>
</svg>
