<svg width="25" height="25" viewBox="0 0 25 25" fill="none" xmlns="http://www.w3.org/2000/svg">
<g clip-path="url(#clip0_621_5306)">
<path d="M20.4497 14.0882V0.888184C16.441 0.888184 16.441 5.63739 16.441 14.0882H20.4497Z" fill="#767676"/>
<path d="M7.4379 12.4818C4.32793 12.4818 3.75476 10.5497 3.64971 8.91993H11.4696C11.3165 10.5046 10.6175 12.4818 7.4379 12.4818Z" fill="#767676"/>
<path fill-rule="evenodd" clip-rule="evenodd" d="M3.51647 0.888184C4.10557 0.888184 4.58313 1.35664 4.58313 1.93451V8.40862H6.31645V1.93451C6.31645 1.35664 6.79401 0.888184 7.38311 0.888184C7.97221 0.888184 8.44977 1.35664 8.44977 1.93451V8.40862H10.4498V1.93451C10.4498 1.35664 10.9273 0.888184 11.5164 0.888184C12.1055 0.888184 12.5831 1.35664 12.5831 1.93451V8.40862C12.5831 8.71042 12.5806 9.11793 12.5342 9.56182C12.4465 10.399 12.1909 11.4941 11.3693 12.3821C10.6933 13.1127 9.73272 13.5997 8.44977 13.7695V23.8419C8.44977 24.4197 7.97221 24.8882 7.38311 24.8882C6.79401 24.8882 6.31645 24.4197 6.31645 23.8419V13.7675C5.07242 13.5968 4.14363 13.1141 3.50322 12.3695C2.72908 11.4694 2.53429 10.3614 2.47598 9.52646C2.44919 9.14278 2.44951 8.77669 2.44976 8.48787C2.44978 8.46076 2.4498 8.43432 2.4498 8.40862V1.93451C2.4498 1.35664 2.92736 0.888184 3.51647 0.888184ZM10.1112 10.5013H4.82766C4.90586 10.6982 5.00635 10.8719 5.13377 11.0201C5.42814 11.3623 6.02125 11.7438 7.38311 11.7438C8.77782 11.7438 9.44153 11.3519 9.7896 10.9757C9.91923 10.8356 10.0252 10.6763 10.1112 10.5013ZM17.5836 13.2479H19.5164V3.15795C19.2959 3.24746 19.1199 3.3668 18.9721 3.50642C18.6091 3.84958 18.2942 4.43127 18.0626 5.38867C17.6323 7.16672 17.588 9.76336 17.5836 13.2479ZM19.5164 15.3405V23.8419C19.5164 24.4197 19.9939 24.8882 20.583 24.8882C21.1721 24.8882 21.6497 24.4197 21.6497 23.8419V1.93451C21.6497 1.35664 21.1721 0.888184 20.583 0.888184C19.3526 0.888184 18.3033 1.23258 17.4919 1.99951C16.7112 2.73741 16.2636 3.762 15.9869 4.9054C15.4496 7.1261 15.4496 10.3131 15.4497 14.1425L15.4497 14.2942C15.4497 14.872 15.9273 15.3405 16.5164 15.3405H19.5164Z" fill="#767676"/>
</g>
<defs>
<clipPath id="clip0_621_5306">
<rect width="24" height="24" fill="white" transform="translate(0.0498047 0.888184)"/>
</clipPath>
</defs>
</svg>
