<svg width="25" height="25" viewBox="0 0 25 25" fill="none" xmlns="http://www.w3.org/2000/svg">
<g clip-path="url(#clip0_665_6498)">
<path d="M2.64995 5.68818C2.64995 5.02544 3.18721 4.48818 3.84995 4.48818H20.65C21.3127 4.48818 21.85 5.02544 21.85 5.68818V8.08818H2.64995V5.68818Z" fill="#767676"/>
<path fill-rule="evenodd" clip-rule="evenodd" d="M5.09332 2.71427H4.05236C2.61509 2.71427 1.44995 3.88222 1.44995 5.32297V22.2795C1.44995 23.7202 2.61509 24.8882 4.05236 24.8882H20.4475C21.8848 24.8882 23.05 23.7202 23.05 22.2795V5.32297C23.05 3.88222 21.8848 2.71427 20.4475 2.71427H19.2765V1.86644C19.2765 1.32617 18.8104 0.888184 18.2355 0.888184C17.6606 0.888184 17.1945 1.32617 17.1945 1.86644V2.71427H7.17525V1.86644C7.17525 1.32617 6.7092 0.888184 6.13429 0.888184C5.55938 0.888184 5.09332 1.32617 5.09332 1.86644V2.71427ZM3.53188 5.32297C3.53188 5.03482 3.76491 4.80123 4.05236 4.80123H20.4475C20.735 4.80123 20.968 5.03482 20.968 5.32297V7.27949H3.53188V5.32297ZM3.53188 9.36644V22.2795C3.53188 22.5676 3.76491 22.8012 4.05236 22.8012H20.4475C20.735 22.8012 20.968 22.5676 20.968 22.2795V9.36644H3.53188Z" fill="#767676"/>
</g>
<defs>
<clipPath id="clip0_665_6498">
<rect width="24" height="24" fill="white" transform="translate(0.25 0.888184)"/>
</clipPath>
</defs>
</svg>
