<svg xmlns="http://www.w3.org/2000/svg" width="456" height="120" fill="none"><path fill="#2B4779" d="M97.5 85.626 83.36 67.374h-5.32v18.252H61.824v-48.04h24.13c17.643 0 28.931 5.01 28.931 14.962 0 6.726-6.488 10.908-15.308 13.103l15.567 19.972H97.5zM85.176 45.958H78.04v13.384h8.043c8.304 0 12.583-2.268 12.583-6.659.001-4.321-3.759-6.725-13.49-6.725m70.331 21.546v18.117H139.29V67.642l-23.353-30.06h17.905l7.005 9.746c2.985 4.183 5.97 8.922 6.748 11.187.907-2.265 3.892-7.208 6.746-11.187l7.005-9.745h17.643zm61.311 18.122-4.278-10.018h-20.365l-4.28 10.018h-16.606l23.222-48.04h15.828l23.218 48.04zm-10.242-23.743c-1.558-3.707-3.632-9.269-4.28-11.666-.651 2.468-2.465 7.615-4.152 11.526l-2.465 5.838h13.362zm71.1 23.743-16.734-21.411c-2.337-3.02-5.192-6.934-6.875-9.744.128 2.954.257 7.892.257 10.91v20.245h-14.791V37.59h16.347l15.958 21.07c2.206 2.878 5.45 7.343 7.134 10.02-.129-2.953-.517-8.168-.517-11.19v-19.9h14.789v48.035zm67.922 0-4.285-10.018h-20.367l-4.279 10.018h-16.606l23.219-48.04h15.83l23.221 48.04zm-10.251-23.743c-1.556-3.707-3.63-9.269-4.281-11.666-.65 2.468-2.465 7.615-4.152 11.526l-2.465 5.838h13.365zm33.346-24.305h16.213v48.04h-16.213zm65.856 48.048-14.142-18.252h-5.318v18.252H398.87v-48.04h24.131c17.643 0 28.928 5.01 28.928 14.962 0 6.726-6.483 10.908-15.305 13.103l15.565 19.972h-17.64zm-12.326-39.668h-7.134v13.384h8.041c8.303 0 12.583-2.268 12.583-6.659 0-4.321-3.76-6.725-13.49-6.725"/><path fill="#F4CA35" d="M35.28 35.874c3.36 1.13 6.915 1.995 10.54 2.41l2.53.024.078-.07c1.511.041 2.629-.627 4.1-.953.157-.037.537-.133.698.084.074.282-.04.59-.36.8-1.8 1.386-3.947 2.417-5.971 3.159v-.042c-.664.128-1.375.416-2.064.644-2.494.76-5.332 1.237-8.014 1.042-5.137-.265-9.504-2.112-14.04-1.893-4.453-.262-8.689 1.45-11.06 4.829-1.216 1.768-2.183 3.633-2.485 5.683.134 1.857 2.725 2.57 3.696 4.105.557.929.833 1.952 1.253 2.915 1.076 1.942 2.142 3.882 3.464 5.71l-.033.037c.775 1.222 2.008 2.28 3.468 2.998 1.891 1.36 3.561 3.066 4.554 4.898l-.052.03c1.118 1.792 1.745 3.65 2.61 5.519.389 1.147.816 2.155 1.148 3.272.114.104.114.272.18.419.307.883.567 1.824.94 2.643-.16.124.127.17.092.29.02.497.501 1.24-.14 1.573-.935-.83-1.425-2.048-1.93-2.933-1.102-1.935-2.365-3.806-3.725-5.646l.041-.038c-.835-1.055-1.757-2.243-2.712-3.335-4.025-4.483-9.94-7.174-14.263-11.442l-.04.038c-.37-.333-.606-.773-.904-1.152l.028-.041c-.526-.742-.84-1.588-1.349-2.348l.03-.038c-1.338-2.004-2.625-4.132-3.49-6.24-.18-.933-.498-1.736-.569-2.81l-.1-.352c.055-.978-2.357-1.545-1.03-3.421.833-.904 4.058-2.019 5.155-3.716.025-.254.083-.556-.135-.786 0-.18-.187-.372-.317-.56-.61-.763-2.264-.16-2.237-1.287.17-.008.008-.157.12-.221-.093-.556-.131-.924.025-1.393.334-.923.66-1.986.594-2.918.067-.35.415-.559.766-.695a17 17 0 0 1 1.96-.357l.085.069c1.557-.128 3.426-.017 4.459 1.214.446.933.097 2.04-.153 2.98-.079.54-.668.982-.53 1.552.204.21.633.198.906.08 2.35-1.432 4.402-3.42 6.113-5.427 1.577-1.486 3.9-2 6.036-1.691 4.328.336 7.985 1.795 12.02 2.786z"/><path fill="#F4CA35" d="M24.125 43.73c.61.816-.207 1.535-.45 2.253-2.539 3.837-3.425 8.183-5.11 12.293-.127.14-.377.184-.558.128-.449-.323-.449-.855-.397-1.32.338-4.455 1.508-8.635 3.393-12.619.441-.637 1.193-1.36 2.162-1.209.366.077.693.206.96.474m6.693 1.164c.324 1.464-.72 2.666-1.183 3.976-2.472 4.963-5.438 9.819-6.903 15.124-.069.168-.167.397-.363.47-.209.058-.384-.047-.439-.195-.494-2.109.075-4.303.614-6.307 1.407-4.454 3.11-9.01 5.493-13.152.276-.212.32-.391.664-.49.828-.087 1.659-.025 2.117.574m7.147.249c.666.505.322 1.458.06 2.05-2.895 6.45-7.585 12.014-9.526 18.78-.537 1.434-.885 2.916-1.33 4.361-.079.26-.457.268-.727.204-.257-.613-.181-1.392-.181-2.055.611-5.437 1.903-10.719 4.543-15.452 1.2-2.364 2.361-4.49 3.62-6.798.356-.652.952-1.243 1.817-1.456a3.3 3.3 0 0 1 1.724.366m7.933.332c.464.783.016 1.643-.195 2.392-1.842 5.184-5.287 9.475-8.054 14.198-2.369 3.88-3.919 8.19-5.496 12.402-.546 1.265-.743 2.67-1.405 3.874-.055.13-.224.052-.34.085-.407-.346-.354-.838-.45-1.276.313-5.273 2.334-10.039 4.232-14.799 2.375-5.307 5.56-10.376 7.725-15.863.301-.693.897-1.54 1.816-1.8.922-.14 1.62.194 2.167.787"/></svg>