<svg width="24" height="24" viewBox="0 0 24 24" fill="none" xmlns="http://www.w3.org/2000/svg">
<g clip-path="url(#clip0_497_918)">
<path fill-rule="evenodd" clip-rule="evenodd" d="M14.3633 0.0193959C17.5787 0.182979 20.4875 1.36669 21.9258 2.76819C22.1257 2.96296 22.2393 3.22983 22.2412 3.50912C22.2431 3.78842 22.1332 4.05682 21.936 4.25432L18.03 8.16598L18.0276 8.1684L8.1326 18.143L8.12874 18.1469L4.35449 21.9918C4.14467 22.2056 3.85323 22.3187 3.55438 22.3023C3.25553 22.286 2.97812 22.1417 2.79281 21.9064C-0.111454 18.2176 -2.2178 10.3717 4.23048 3.70344C4.24004 3.69355 4.2498 3.68385 4.25974 3.67435C7.34194 0.729583 11.095 -0.146887 14.3633 0.0193959ZM7.46914 15.8499L15.7687 7.48356C14.7525 6.69693 13.199 5.77296 11.499 5.16853C9.29264 4.38407 7.17533 4.25127 5.6835 5.21326C4.34835 6.86048 4.33549 9.00192 5.03832 11.2157C5.59984 12.9845 6.58032 14.6543 7.46914 15.8499ZM10.0367 2.61732C10.783 2.75203 11.5119 2.95795 12.1964 3.20132C14.1853 3.90845 16.0306 5.01038 17.2497 5.99526L19.6195 3.62196C18.4148 2.88581 16.4891 2.21775 14.2576 2.10422C12.8939 2.03484 11.4532 2.17513 10.0367 2.61732ZM2.63548 10.143C1.4469 13.7948 2.35291 17.3112 3.75134 19.6285L5.98873 17.3493C4.93331 15.9818 3.73506 14.0003 3.05183 11.8482C2.87721 11.2982 2.73342 10.7263 2.63548 10.143ZM14.2026 14.3309C14.6063 13.9199 15.2661 13.9145 15.6765 14.3188L23.6887 22.2122C24.099 22.6164 24.1044 23.2773 23.7008 23.6882C23.2971 24.0992 22.6372 24.1046 22.2269 23.7003L14.2147 15.8069C13.8043 15.4026 13.7989 14.7418 14.2026 14.3309Z" fill="#17317F"/>
</g>
<defs>
<clipPath id="clip0_497_918">
<rect width="24" height="24" fill="white"/>
</clipPath>
</defs>
</svg>
