<svg width="24" height="24" viewBox="0 0 24 24" fill="none" xmlns="http://www.w3.org/2000/svg">
<path fill-rule="evenodd" clip-rule="evenodd" d="M3.79209 12.3966C3.77207 12.3966 3.75213 12.3969 3.73226 12.3975L3.79209 12.3966Z" fill="#17317F"/>
<path d="M5.56477 5.17242C5.56477 4.71255 5.93757 4.33975 6.39744 4.33975H7.41473C7.8746 4.33975 8.2474 4.71255 8.2474 5.17242C8.2474 5.6323 7.8746 6.00509 7.41473 6.00509H6.39744C5.93757 6.00509 5.56477 5.6323 5.56477 5.17242Z" fill="#17317F"/>
<path d="M10.1436 5.17242C10.1436 4.71255 10.5164 4.33975 10.9762 4.33975H11.9935C12.4534 4.33975 12.8262 4.71255 12.8262 5.17242C12.8262 5.6323 12.4534 6.00509 11.9935 6.00509H10.9762C10.5164 6.00509 10.1436 5.6323 10.1436 5.17242Z" fill="#17317F"/>
<path d="M5.56477 8.48911C5.56477 8.02924 5.93757 7.65644 6.39744 7.65644H7.41473C7.8746 7.65644 8.2474 8.02924 8.2474 8.48911C8.2474 8.94899 7.8746 9.32178 7.41473 9.32178H6.39744C5.93757 9.32178 5.56477 8.94899 5.56477 8.48911Z" fill="#17317F"/>
<path d="M10.1436 8.48911C10.1436 8.02924 10.5164 7.65644 10.9762 7.65644H11.9935C12.4534 7.65644 12.8262 8.02924 12.8262 8.48911C12.8262 8.94899 12.4534 9.32178 11.9935 9.32178H10.9762C10.5164 9.32178 10.1436 8.94899 10.1436 8.48911Z" fill="#17317F"/>
<path d="M18.0076 10.792C18.0076 10.3322 18.3804 9.95938 18.8402 9.95938H19.8575C20.3174 9.95938 20.6902 10.3322 20.6902 10.792C20.6902 11.2519 20.3174 11.6247 19.8575 11.6247H18.8402C18.3804 11.6247 18.0076 11.2519 18.0076 10.792Z" fill="#17317F"/>
<path d="M2.95979 14.5698C2.95979 14.1099 3.33259 13.7371 3.79246 13.7371H4.80975C5.26962 13.7371 5.64242 14.1099 5.64242 14.5698C5.64242 15.0297 5.26962 15.4025 4.80975 15.4025H3.79246C3.33259 15.4025 2.95979 15.0297 2.95979 14.5698Z" fill="#17317F"/>
<path d="M6.96597 14.5698C6.96597 14.1099 7.33877 13.7371 7.79865 13.7371H8.81593C9.2758 13.7371 9.6486 14.1099 9.6486 14.5698C9.6486 15.0297 9.2758 15.4025 8.81593 15.4025H7.79865C7.33877 15.4025 6.96597 15.0297 6.96597 14.5698Z" fill="#17317F"/>
<path d="M10.9724 14.5698C10.9724 14.1099 11.3452 13.7371 11.8051 13.7371H12.8223C13.2822 13.7371 13.655 14.1099 13.655 14.5698C13.655 15.0297 13.2822 15.4025 12.8223 15.4025H11.8051C11.3452 15.4025 10.9724 15.0297 10.9724 14.5698Z" fill="#17317F"/>
<path d="M18.0076 14.6235C18.0076 14.1636 18.3804 13.7908 18.8402 13.7908H19.8575C20.3174 13.7908 20.6902 14.1636 20.6902 14.6235C20.6902 15.0834 20.3174 15.4562 19.8575 15.4562H18.8402C18.3804 15.4562 18.0076 15.0834 18.0076 14.6235Z" fill="#17317F"/>
<path d="M2.95979 17.6222C2.95979 17.1623 3.33259 16.7895 3.79246 16.7895H4.80975C5.26962 16.7895 5.64242 17.1623 5.64242 17.6222C5.64242 18.082 5.26962 18.4548 4.80975 18.4548H3.79246C3.33259 18.4548 2.95979 18.082 2.95979 17.6222Z" fill="#17317F"/>
<path d="M6.96597 17.6222C6.96597 17.1623 7.33877 16.7895 7.79865 16.7895H8.81593C9.2758 16.7895 9.6486 17.1623 9.6486 17.6222C9.6486 18.082 9.2758 18.4548 8.81593 18.4548H7.79865C7.33877 18.4548 6.96597 18.082 6.96597 17.6222Z" fill="#17317F"/>
<path d="M10.9724 17.6222C10.9724 17.1623 11.3452 16.7895 11.8051 16.7895H12.8223C13.2822 16.7895 13.655 17.1623 13.655 17.6222C13.655 18.082 13.2822 18.4548 12.8223 18.4548H11.8051C11.3452 18.4548 10.9724 18.082 10.9724 17.6222Z" fill="#17317F"/>
<path d="M18.0076 18.4549C18.0076 17.9951 18.3804 17.6223 18.8402 17.6223H19.8575C20.3174 17.6223 20.6902 17.9951 20.6902 18.4549C20.6902 18.9148 20.3174 19.2876 19.8575 19.2876H18.8402C18.3804 19.2876 18.0076 18.9148 18.0076 18.4549Z" fill="#17317F"/>
<path fill-rule="evenodd" clip-rule="evenodd" d="M6.75368 0.784668C4.13578 0.784668 2.01356 2.90689 2.01356 5.52478V10.9426C0.815613 11.5799 0 12.841 0 14.2926V23.2155H16.594V23.1933H24V10.4674C24 7.89871 21.9177 5.81641 19.3491 5.81641C18.3202 5.81641 17.3692 6.15026 16.5988 6.71569V5.52478C16.5988 2.90689 14.4766 0.784668 11.8587 0.784668H6.75368ZM3.90961 10.5005V5.52478C3.90961 3.95405 5.18294 2.68071 6.75368 2.68071H11.8587C13.4294 2.68071 14.7027 3.95405 14.7027 5.52478V10.2561C14.6997 10.3255 14.6981 10.3953 14.6981 10.4655V11.0079C14.1403 10.6852 13.4927 10.5005 12.8019 10.5005H3.90961ZM16.5988 11.4495V10.3045C16.6821 8.85861 17.881 7.71245 19.3491 7.71245C20.8705 7.71245 22.104 8.94586 22.104 10.4674V21.2972H16.5942L16.5988 11.4495ZM9.30617 12.3966H12.8019C13.849 12.3966 14.6979 13.2454 14.6979 14.2926V21.3194H1.89604V14.2926C1.89604 13.2655 2.71279 12.4291 3.73226 12.3975C3.75213 12.3969 3.77207 12.3966 3.79209 12.3966H9.30617Z" fill="#17317F"/>
</svg>
