<svg width="33" height="32" viewBox="0 0 33 32" fill="none" xmlns="http://www.w3.org/2000/svg">
<circle cx="16.6616" cy="16" r="16" fill="#FEDC07"/>
<path d="M20.5013 10.4864H20.4496C20.4516 10.4555 20.4516 10.4244 20.4496 10.3935V7.59322C20.4486 7.2395 20.3036 6.90062 20.0464 6.65087C19.7892 6.40111 19.4408 6.26086 19.0776 6.26086H14.2456C13.8828 6.26086 13.5348 6.40124 13.2782 6.6511C13.0217 6.90097 12.8775 7.23986 12.8775 7.59322V10.3935C12.8756 10.4244 12.8756 10.4555 12.8775 10.4864H12.8258C12.3909 10.4864 11.9737 10.6544 11.6658 10.9536C11.3579 11.2527 11.1844 11.6586 11.1833 12.0822V22.9772C11.1833 23.4015 11.3564 23.8083 11.6644 24.1083C11.9724 24.4083 12.3902 24.5768 12.8258 24.5768H13.1002C13.0794 24.6487 13.0687 24.7229 13.0684 24.7976C13.0602 24.9182 13.0775 25.0392 13.1193 25.1531C13.161 25.2669 13.2263 25.3712 13.3111 25.4595C13.396 25.5477 13.4985 25.6181 13.6124 25.6662C13.7262 25.7143 13.849 25.7391 13.9732 25.7391C14.0973 25.7391 14.2201 25.7143 14.334 25.6662C14.4479 25.6181 14.5504 25.5477 14.6352 25.4595C14.72 25.3712 14.7854 25.2669 14.8271 25.1531C14.8688 25.0392 14.8862 24.9182 14.8779 24.7976C14.8777 24.7229 14.867 24.6487 14.8461 24.5768H18.4731C18.4522 24.6487 18.4415 24.7229 18.4413 24.7976C18.4413 25.0318 18.5368 25.2564 18.7069 25.422C18.8769 25.5876 19.1075 25.6807 19.348 25.6807C19.5885 25.6807 19.8192 25.5876 19.9892 25.422C20.1592 25.2564 20.2548 25.0318 20.2548 24.7976C20.2532 24.7228 20.2412 24.6485 20.219 24.5768H20.4934C20.7094 24.5773 20.9234 24.5363 21.1232 24.4562C21.3229 24.376 21.5044 24.2583 21.6574 24.1097C21.8103 23.9611 21.9317 23.7846 22.0144 23.5903C22.0972 23.3959 22.1399 23.1876 22.1399 22.9772V12.0938C22.1409 11.8834 22.0993 11.6749 22.0175 11.4802C21.9357 11.2854 21.8152 11.1084 21.663 10.9591C21.5108 10.8097 21.3299 10.6911 21.1305 10.61C20.9312 10.5289 20.7174 10.4869 20.5013 10.4864ZM13.6729 10.3935V7.59322C13.6724 7.51983 13.6868 7.44707 13.7154 7.37918C13.744 7.31128 13.7862 7.24959 13.8395 7.1977C13.8928 7.1458 13.9561 7.10474 14.0258 7.0769C14.0955 7.04905 14.1702 7.03497 14.2456 7.03549H19.0895C19.1651 7.03498 19.24 7.04903 19.3099 7.07683C19.3798 7.10463 19.4435 7.14563 19.4971 7.19747C19.5507 7.24931 19.5932 7.31097 19.6222 7.37889C19.6512 7.44681 19.6662 7.51965 19.6662 7.59322V10.3935C19.67 10.4244 19.67 10.4556 19.6662 10.4864H13.7008C13.6894 10.4561 13.6801 10.425 13.6729 10.3935V10.3935Z" fill="#E1165C"/>
</svg>
