<svg width="33" height="32" viewBox="0 0 33 32" fill="none" xmlns="http://www.w3.org/2000/svg">
<circle cx="16.6616" cy="16" r="16" fill="#FEDC07"/>
<path d="M16.6615 5.59995H14.3615V7.59994C14.3615 8.15223 14.8093 8.59994 15.3615 8.59994H18.0615C18.6138 8.59994 19.0615 8.15223 19.0615 7.59994V5.59995H16.6615Z" fill="#E21969"/>
<path d="M14.3615 5.59995H12.4615C11.357 5.59995 10.4615 6.49538 10.4615 7.59995V24.3999C10.4615 25.5045 11.357 26.3999 12.4615 26.3999H20.8615C21.9661 26.3999 22.8615 25.5045 22.8615 24.3999V7.59994C22.8615 6.49538 21.9661 5.59995 20.8615 5.59995H19.0615M14.3615 5.59995H16.6615H19.0615M14.3615 5.59995V7.59994C14.3615 8.15223 14.8093 8.59994 15.3615 8.59994H18.0615C18.6138 8.59994 19.0615 8.15223 19.0615 7.59994V5.59995" stroke="#E21969" stroke-width="2"/>
</svg>
