<svg xmlns="http://www.w3.org/2000/svg" width="563" height="120" fill="none"><path fill="#2E5C99" d="M.901 89.625c1.23-.63 1.781-2.126 1.781-3.405V54.835c0-1.328-.55-2.78-1.78-3.447h14.934c6.66 0 13.159 2.73 13.159 10.304 0 4.017-3.495 7.185-7.265 7.897 5.43-.049 10.676 3.273 10.676 9.274 0 8.576-8.98 10.765-15.297 10.765zm12.09-34.943c-.692 0-1.172 0-2.447.153V68.22h1.511c4.578 0 9.002-1.416 9.002-6.73 0-5.27-3.537-6.807-8.066-6.807m.953 16.982c-1.092 0-2.072 0-3.4.1v14.133c1.655.325 3.446.432 5.097.432 3.832 0 7.729-1.712 7.729-7.575 0-5.788-4.608-7.09-9.426-7.09m33.232-16.982c-.682 0-1.284.111-1.957.207v13.223c.624.044 1.191.11 1.809.11 4.296 0 7.476-2.375 7.476-7.055 0-4.783-3.126-6.485-7.328-6.485m19.25 35.169c-1.463 0-3.077.053-4.475-.36-2.598-.768-6.186-6.634-7.612-8.935-2.218-3.74-4.146-8.892-9.118-8.948V86.22c0 1.28.578 2.829 1.81 3.405H35.564c1.205-.63 1.779-2.067 1.779-3.405V54.835c0-1.328-.576-2.78-1.78-3.447H49.37c6.005 0 13.52 2.31 13.52 9.537 0 6.064-5.009 9.171-10.594 9.171 7.947.047 12.615 18.718 21.389 18.771-2.353.698-4.805.984-7.257.984m7.834-.226c.947-.435 1.939-1.688 1.939-3.405V54.835c0-1.742-.992-2.975-1.94-3.447h11.75c-1.008.472-1.928 1.705-1.928 3.447V86.22c0 1.717.92 2.97 1.928 3.405zm25.495 0c1.258-.576 1.874-2.067 1.874-3.405V55.773h-8.437c-1.946 0-4.266.24-5.938 1.232l2.621-5.62h27.985c2.267 0 4.584-.048 6.786-.518-1.066 2.877-4.238 5.01-6.066 5.01-2.223-.051-5.899-.2-9.067-.2v30.54c0 1.338.662 2.83 1.898 3.406zm26.289 0c.938-.435 1.923-1.688 1.923-3.405V54.835c0-1.742-.985-2.975-1.923-3.447h11.749c-.999.472-1.956 1.705-1.956 3.447V86.22c0 1.717.957 2.97 1.956 3.405zm34.624-8.65c0-7.283-17.127-8.927-17.127-20.553 0-7.196 6.834-9.553 12.845-9.553 2.682 0 6.563.373 9.015 1.503l.427 7.148c-1.507-3.157-5.281-5.443-8.785-5.443-2.771 0-5.674 1.372-5.674 4.545 0 7.552 17.418 9.397 17.418 20.408 0 7.992-6.972 11.302-14.009 11.302-3.68 0-8.687-.709-11.792-2.835a27 27 0 0 1-.275-3.926c0-1.561.137-3.126.367-4.666 1.937 4.421 5.946 7.88 10.953 7.88 3.804.003 6.637-1.658 6.637-5.81m36.693 8.65c.829-.374 1.717-1.688 1.717-3.405V71.992c-2.044-.23-4.898-.33-8.101-.33-3.251 0-6.129.1-8.223.33V86.22c0 1.717.864 2.97 1.704 3.405h-11.312c.838-.374 1.733-1.688 1.733-3.405V54.835c0-1.742-.895-3.026-1.733-3.447h11.312c-.84.423-1.704 1.705-1.704 3.447v12.856c2.094.221 4.921.328 8.223.328 3.203 0 6.057-.14 8.101-.328V54.835c0-1.742-.885-3.026-1.717-3.447h11.296c-.845.423-1.683 1.705-1.683 3.447V86.22c0 1.717.838 2.97 1.683 3.405zm53.225 0c.364-.374.694-.653.694-1.33 0-.228-.086-.61-.365-1.321 0 0-3.135-8.546-3.502-9.542-2.355-.29-4.809-.29-7.213-.29-2.281 0-4.596.053-6.856.29-.32.856-3.681 9.356-3.681 9.356-.453 1.149-.608 1.542-.608 1.793 0 .567.488.844.901 1.044h-7.685c1.134-.576 2.116-1.763 2.601-2.944l12.629-32.648c.058-.135.079-.286.079-.47 0-.9-.597-1.754-1.4-2.177h9.907l12.845 35.262c.525 1.417 1.644 2.45 2.585 2.975zm-9.975-30.959-5.79 14.887c1.726.19 3.516.234 5.263.234 2.002 0 3.98 0 5.926-.234zm22.861 30.96c.948-.436 1.928-1.69 1.928-3.406V54.835c0-1.742-.98-2.975-1.928-3.447h11.742c-.998.472-1.93 1.705-1.93 3.447V86.22c0 1.717.929 2.97 1.93 3.405zm29.592-34.944c-.634 0-1.243.111-1.902.207v13.223c.613.044 1.173.11 1.769.11 4.306 0 7.478-2.375 7.478-7.055-.002-4.783-3.139-6.485-7.345-6.485m20.209 35.169c-1.463 0-3.042.053-4.473-.36-2.603-.768-6.182-6.634-7.61-8.935-2.209-3.74-5.084-8.948-10.028-8.948V86.22c0 1.28.553 2.829 1.769 3.405h-11.456c1.231-.63 1.805-2.067 1.805-3.405V54.835c0-1.328-.574-2.78-1.805-3.447h13.835c5.989 0 13.492 2.31 13.492 9.537 0 6.064-5.473 9.171-9.616 9.171 8.237.475 13.205 18.771 21.377 18.771-2.369.698-4.821.984-7.29.984m47.632-34.73-11.603 34.504c-.957 0-1.895-.33-2.427-.704-1.147-1.108-2.951-5.73-3.602-7.434l-5.244-13.268-7.552 21.406h-3.595L313.9 55.035c-.558-1.472-1.51-2.884-2.926-3.647h11.284c-.476.37-.804.79-.804 1.596 0 .386.191.918.328 1.33l8.456 22.883 9.003-25.809 9.917 24.881 7.51-22.522c.186-.612.295-.838.295-1.224 0-.467-.202-.765-.673-1.135h7.473c-1.382.726-2.38 2.31-2.856 3.733m13.869 3.545-5.788 14.887c1.747.19 3.533.234 5.275.234 1.981 0 3.982 0 5.917-.234zm9.963 30.96c.395-.375.694-.654.694-1.331 0-.228-.116-.61-.346-1.321 0 0-3.114-8.546-3.493-9.542-2.375-.29-4.826-.29-7.229-.29-2.26 0-4.578.053-6.849.29-.327.856-3.665 9.356-3.665 9.356-.48 1.149-.613 1.542-.613 1.793 0 .567.467.844.876 1.044h-7.687c1.135-.576 2.116-1.763 2.592-2.944l12.673-32.648c.037-.135.072-.286.072-.47 0-.9-.599-1.754-1.424-2.177h9.917l12.84 35.262c.532 1.417 1.665 2.45 2.599 2.975zm34.498-34.223-9.043 15.882V86.22c0 1.214.497 2.829 1.705 3.405h-11.252c1.15-.63 1.679-2.23 1.679-3.405V71.236l-7.861-12.614c-.704-1.18-3.983-6.676-7.98-6.676 1.087-.414 4.392-1.044 6.61-1.044 3.699 0 5.531.34 7.796 3.891l7.273 11.547c.611-1.133 6.371-11.163 6.371-11.163.694-1.221 1.17-2.084 1.17-2.512 0-.549-.237-.907-.794-1.277h8.105c-1.589.763-2.912 2.512-3.779 4.015m21.169 25.572c0-7.283-17.13-8.927-17.13-20.553 0-7.196 6.816-9.553 12.829-9.553 2.691 0 6.549.373 9.013 1.503l.427 7.148c-1.523-3.157-5.281-5.443-8.788-5.443-2.775 0-5.659 1.372-5.659 4.545 0 7.552 17.417 9.397 17.417 20.408 0 7.992-6.923 11.302-14.01 11.302-3.679 0-8.698-.709-11.807-2.835-.202-1.28-.3-2.617-.3-3.926 0-1.561.149-3.126.386-4.666 1.934 4.421 5.957 7.88 10.964 7.88 3.82.003 6.658-1.658 6.658-5.81"/><path fill="url(#a)" d="M545.788 24.623c-6.419 6.39-20.326 11.874-27.167 14.442-9.348 3.517-13.496 4.761-18.726 6.466-5.919 1.924-17.761 5.513-17.761 5.513 24.531 7.336 41.819 9.548 41.819 9.548s8.054-2.493 20.813-9.327c6.909-3.517 10.309-5.885 12.74-8.148.897-.812 3.212-3.226 3.788-6.315.037-.226.149-.817.149-1.398 0 0 0-.41-.038-.766-.013-.409-.085-.683-.085-.683s-.137-.733-.319-1.247c-.188-.514-.977-2.1-2.257-3.131-.855-.696-2.332-2.428-7.682-4.312-1.819-.633-4.764-1.217-4.764-1.217z"/><path fill="#CE210F" d="M561.44 35.24s-.037-.683-.204-1.262c-.13-.517-.36-1.01-.706-1.528a13 13 0 0 0-1.816-2.14c-.63-.596-1.319-1.121-2.151-1.68-3.346-2.195-7.666-3.433-11.488-3.956-5.925-.789-12.72-.65-13.363-.672-2.186-.03-16.306.086-19.935.15-16.12.333-35.853.378-41.023.378-53.365.244-76.593-.908-102.446-6.1-21.993-4.374-34.194-8.531-34.194-8.531 19.398-.672 132.586-5.375 153.234-5.924 13.518-.382 23.116-.463 30.796-.019 3.939.221 7.604.556 12.207 1.34 4.127.707 7.875 1.907 10.058 2.719 4.598 1.705 8.474 4.17 10.39 6.696 0 0 .567.582 1.336 1.615.861 1.2 1.862 2.677 2.201 3.228 2.799 4.248 4.127 6.916 4.589 7.846.499.977.941 1.99 1.37 2.984.421.986.593 1.584.727 2 .295 1.045.367 1.996.381 2.21z"/><defs><linearGradient id="a" x1="537.61" x2="508.894" y1="16.863" y2="66.522" gradientUnits="userSpaceOnUse"><stop stop-color="#E6EBEF"/><stop offset=".076" stop-color="#BBCEE5"/><stop offset=".185" stop-color="#85A9D8"/><stop offset=".28" stop-color="#5D8FCF"/><stop offset=".354" stop-color="#457EC9"/><stop offset=".4" stop-color="#3C78C7"/><stop offset=".9" stop-color="#2E5C99"/></linearGradient></defs></svg>