<svg width="25" height="25" viewBox="0 0 25 25" fill="none" xmlns="http://www.w3.org/2000/svg">
<g clip-path="url(#clip0_445_9602)">
<path fill-rule="evenodd" clip-rule="evenodd" d="M14.8585 3.70554C15.2757 3.27977 15.9492 3.2828 16.3628 3.71231L23.9417 11.583C24.3515 12.0086 24.3529 12.6942 23.945 13.1215L16.366 21.0607C15.9542 21.492 15.2808 21.4981 14.8618 21.0742C14.4427 20.6502 14.4369 19.9569 14.8487 19.5256L20.6495 13.449H1.31371C0.72624 13.449 0.25 12.9587 0.25 12.354C0.25 11.7492 0.72624 11.2589 1.31371 11.2589H20.634L14.8519 5.25417C14.4383 4.82466 14.4413 4.13132 14.8585 3.70554Z" fill="#1A73E8"/>
</g>
<defs>
<clipPath id="clip0_445_9602">
<rect width="24" height="24" fill="white" transform="translate(0.25 0.388184)"/>
</clipPath>
</defs>
</svg>
