<svg width="24" height="24" viewBox="0 0 24 24" fill="none" xmlns="http://www.w3.org/2000/svg">
<g clip-path="url(#clip0_450_8163)">
<path fill-rule="evenodd" clip-rule="evenodd" d="M6.16498 4.72131H7.00381V2.4C7.00381 1.07452 8.07833 0 9.40381 0H14.6526C15.9781 0 17.0526 1.07452 17.0526 2.4V4.72131H17.8352C19.2518 4.72131 20.4001 5.89565 20.4001 7.34426V20.3279C20.4001 21.5504 19.5822 22.5776 18.4755 22.8684C18.4505 23.4977 17.9437 24 17.3222 24C16.7281 24 16.2389 23.541 16.1751 22.9508H7.82511C7.76132 23.541 7.27206 24 6.67796 24C6.05649 24 5.54974 23.4977 5.52473 22.8684C4.41799 22.5776 3.6001 21.5504 3.6001 20.3279V7.34426C3.6001 5.89565 4.74844 4.72131 6.16498 4.72131ZM9.40381 4.72131V2.4L14.6526 2.4V4.72131H9.40381ZM6.16498 6.81967H17.8352C18.1185 6.81967 18.3482 7.05454 18.3482 7.34426V20.3279C18.3482 20.6176 18.1185 20.8525 17.8352 20.8525H6.16498C5.88167 20.8525 5.65201 20.6176 5.65201 20.3279V7.34426C5.65201 7.05454 5.88167 6.81967 6.16498 6.81967Z" fill="#17317F"/>
<path fill-rule="evenodd" clip-rule="evenodd" d="M8.05044 8.57641C8.71318 8.57641 9.25044 9.11367 9.25044 9.77641L9.25044 17.8339C9.25044 18.4967 8.71318 19.0339 8.05044 19.0339C7.3877 19.0339 6.85044 18.4967 6.85044 17.8339L6.85044 9.77641C6.85044 9.11367 7.3877 8.57641 8.05044 8.57641Z" fill="#17317F"/>
<path fill-rule="evenodd" clip-rule="evenodd" d="M12.0284 8.57641C12.6911 8.57641 13.2284 9.11367 13.2284 9.77641V17.8339C13.2284 18.4967 12.6911 19.0339 12.0284 19.0339C11.3656 19.0339 10.8284 18.4967 10.8284 17.8339L10.8284 9.77641C10.8284 9.11367 11.3656 8.57641 12.0284 8.57641Z" fill="#17317F"/>
<path fill-rule="evenodd" clip-rule="evenodd" d="M15.9498 8.57641C16.6125 8.57641 17.1498 9.11367 17.1498 9.77641V17.8339C17.1498 18.4967 16.6125 19.0339 15.9498 19.0339C15.287 19.0339 14.7498 18.4967 14.7498 17.8339V9.77641C14.7498 9.11367 15.287 8.57641 15.9498 8.57641Z" fill="#17317F"/>
</g>
<defs>
<clipPath id="clip0_450_8163">
<rect width="24" height="24" fill="white"/>
</clipPath>
</defs>
</svg>
