<svg width="25" height="25" viewBox="0 0 25 25" fill="none" xmlns="http://www.w3.org/2000/svg">
<g clip-path="url(#clip0_445_9612)">
<path fill-rule="evenodd" clip-rule="evenodd" d="M6.98937 5.71199C6.84847 5.58604 6.65091 5.5452 6.47162 5.60496L5.68132 5.86839C5.52981 5.91889 5.40939 6.03539 5.3539 6.18515C5.2984 6.3349 5.31383 6.50175 5.39585 6.63878L10.2406 14.7338L3.34938 16.5868L1.38809 14.8633C1.25812 14.7491 1.08037 14.706 0.912514 14.7479L0.649082 14.8138C0.488771 14.8539 0.356551 14.9668 0.291942 15.1189C0.227333 15.271 0.237822 15.4446 0.320273 15.5878L2.82288 19.9344C2.94213 20.1416 3.18587 20.2425 3.41663 20.1802L22.713 14.9775C22.7178 14.9762 22.7225 14.9748 22.7273 14.9734C23.3198 14.7956 23.7573 14.4754 24.011 14.0542C24.2641 13.6338 24.3051 13.1593 24.1861 12.7371C23.9486 11.894 23.0693 11.2503 21.9871 11.5209C21.9836 11.5217 21.9801 11.5227 21.9767 11.5236L15.4693 13.2926L6.98937 5.71199Z" fill="#17317F"/>
</g>
<defs>
<clipPath id="clip0_445_9612">
<rect width="24" height="24" fill="white" transform="translate(0.25 0.888184)"/>
</clipPath>
</defs>
</svg>
