<svg width="25" height="24" viewBox="0 0 25 24" fill="none" xmlns="http://www.w3.org/2000/svg">
<path fill-rule="evenodd" clip-rule="evenodd" d="M21.643 21.7143V4.57143C21.643 2.0467 19.5963 0 17.0715 0H7.92868C5.40395 0 3.35725 2.0467 3.35725 4.57143V21.7143H2.21439C1.58321 21.7143 1.07153 22.226 1.07153 22.8571C1.07153 23.4883 1.58321 24 2.21439 24L22.7858 24C23.417 24 23.9287 23.4883 23.9287 22.8571C23.9287 22.226 23.417 21.7143 22.7858 21.7143H21.643ZM17.0715 2.28571H7.92868C6.66631 2.28571 5.64296 3.30906 5.64296 4.57143V21.7143H9.07153V16C9.07153 15.3688 9.58321 14.8571 10.2144 14.8571H14.7858C15.417 14.8571 15.9287 15.3688 15.9287 16V21.7143H19.3572V4.57143C19.3572 3.30906 18.3339 2.28571 17.0715 2.28571ZM13.643 21.7143V17.1429H11.3572V21.7143H13.643Z" fill="#17317F"/>
<path d="M12.3026 4.91053C12.3908 4.75916 12.6094 4.75916 12.6976 4.91053L13.9273 7.02172C13.9596 7.07717 14.0137 7.11649 14.0764 7.13007L16.4642 7.64715C16.6355 7.68423 16.703 7.89221 16.5863 8.02284L14.9584 9.8447C14.9157 9.89256 14.895 9.95618 14.9015 10.02L15.1476 12.4508C15.1652 12.6251 14.9883 12.7536 14.828 12.683L12.5923 11.6978C12.5336 11.6719 12.4667 11.6719 12.4079 11.6978L10.1722 12.683C10.0119 12.7536 9.83497 12.6251 9.85262 12.4508L10.0987 10.02C10.1052 9.95618 10.0845 9.89256 10.0418 9.8447L8.41389 8.02284C8.29717 7.89221 8.36475 7.68423 8.53596 7.64715L10.9238 7.13007C10.9865 7.11649 11.0406 7.07717 11.0729 7.02172L12.3026 4.91053Z" fill="#17317F"/>
</svg>
