<svg width="25" height="24" viewBox="0 0 25 24" fill="none" xmlns="http://www.w3.org/2000/svg">
<g clip-path="url(#clip0_234_694)">
<path fill-rule="evenodd" clip-rule="evenodd" d="M7.95831 0.0567978C8.18426 -0.0200973 8.4298 -0.0188822 8.65496 0.0602455L16.67 2.87694L23.0394 0.275748C23.3657 0.142478 23.7375 0.179386 24.0308 0.37415C24.324 0.568915 24.5 0.895882 24.5 1.2459V20.5902C24.5 21.035 24.2172 21.4315 23.7942 21.5795L17.0504 23.9402C16.8198 24.0209 16.5681 24.0199 16.3381 23.9373L8.31647 21.0556L1.94406 23.5341C1.61845 23.6608 1.25077 23.6196 0.961823 23.4242C0.672872 23.2287 0.5 22.9043 0.5 22.5574V3.34426C0.5 2.89606 0.787069 2.49735 1.21451 2.35188L7.95831 0.0567978ZM9.3595 19.1986L15.6405 21.4549V4.74134L9.3595 2.53403V19.1986ZM7.2438 2.51842V19.2189L2.6157 21.019V4.09348L7.2438 2.51842ZM17.7562 4.70263V21.4679L22.3843 19.8479V2.81256L17.7562 4.70263Z" fill="#1A73E8"/>
</g>
<defs>
<clipPath id="clip0_234_694">
<rect width="24" height="24" fill="white" transform="translate(0.5)"/>
</clipPath>
</defs>
</svg>
