<svg width="25" height="25" viewBox="0 0 25 25" fill="none" xmlns="http://www.w3.org/2000/svg">
<g clip-path="url(#clip0_457_8219)">
<path fill-rule="evenodd" clip-rule="evenodd" d="M4.70475 9.99513C4.70475 4.55118 8.96991 2.14648 12.2178 2.14648C12.2285 2.14648 12.2392 2.14631 12.2499 2.14598C12.2606 2.14631 12.2713 2.14648 12.282 2.14648C15.5299 2.14648 19.7951 4.55118 19.7951 9.99513C19.7951 12.2053 18.6467 14.4293 16.9652 16.5853C15.5759 18.3667 13.9186 19.9862 12.4457 21.4254C12.3801 21.4895 12.3148 21.5533 12.2499 21.6167C12.185 21.5533 12.1197 21.4895 12.0541 21.4254C10.5812 19.9862 8.9239 18.3667 7.53456 16.5853C5.85308 14.4293 4.70475 12.2053 4.70475 9.99513ZM12.2499 24.0703C11.9798 24.0788 11.7068 23.9803 11.4986 23.7741C11.2331 23.5112 10.9505 23.2353 10.6557 22.9474C9.18302 21.5094 7.40446 19.7727 5.92043 17.8698C4.14505 15.5934 2.6499 12.9092 2.6499 9.99513C2.6499 3.11474 8.14528 0.0708008 12.2178 0.0708008C12.2285 0.0708008 12.2392 0.0709673 12.2499 0.0712979C12.2606 0.0709673 12.2713 0.0708008 12.282 0.0708008C16.3545 0.0708008 21.8499 3.11474 21.8499 9.99513C21.8499 12.9092 20.3548 15.5934 18.5794 17.8698C17.0953 19.7727 15.3173 21.5089 13.8446 22.9469C13.5498 23.2348 13.2667 23.5112 13.0012 23.7741C12.793 23.9803 12.52 24.0788 12.2499 24.0703Z" fill="#1A73E8"/>
<path d="M15.8499 9.6708C15.8499 11.659 14.2381 13.2708 12.2499 13.2708C10.2617 13.2708 8.6499 11.659 8.6499 9.6708C8.6499 7.68258 10.2617 6.0708 12.2499 6.0708C14.2381 6.0708 15.8499 7.68258 15.8499 9.6708Z" fill="#1A73E8"/>
</g>
<defs>
<clipPath id="clip0_457_8219">
<rect width="24" height="24" fill="white" transform="translate(0.25 0.0708008)"/>
</clipPath>
</defs>
</svg>
