<svg width="80" height="14" viewBox="0 0 80 14" fill="none" xmlns="http://www.w3.org/2000/svg">
<path d="M12.6369 6.71354C12.6369 9.99583 10.023 12.6421 6.81638 12.6421C3.60974 12.6421 0.99585 9.99583 0.99585 6.71354C0.99585 3.43126 3.60974 0.784973 6.81638 0.784973C10.023 0.784973 12.6369 3.43126 12.6369 6.71354Z" fill="#00A061" stroke="#00A061"/>
<path d="M29.0869 6.71354C29.0869 9.99583 26.473 12.6421 23.2663 12.6421C20.0597 12.6421 17.4458 9.99583 17.4458 6.71354C17.4458 3.43126 20.0597 0.784973 23.2663 0.784973C26.473 0.784973 29.0869 3.43126 29.0869 6.71354Z" fill="#00A061" stroke="#00A061"/>
<path d="M45.9416 6.71354C45.9416 9.99583 43.3277 12.6421 40.1211 12.6421C36.9144 12.6421 34.3005 9.99583 34.3005 6.71354C34.3005 3.43126 36.9144 0.784973 40.1211 0.784973C43.3277 0.784973 45.9416 3.43126 45.9416 6.71354Z" fill="#00A061" stroke="#00A061"/>
<path d="M62.7963 6.71354C62.7963 9.99583 60.1824 12.6421 56.9758 12.6421C53.7692 12.6421 51.1553 9.99583 51.1553 6.71354C51.1553 3.43126 53.7692 0.784973 56.9758 0.784973C60.1824 0.784973 62.7963 3.43126 62.7963 6.71354Z" fill="#00A061" stroke="#00A061"/>
<path d="M79.247 6.71354C79.247 9.99583 76.6331 12.6421 73.4265 12.6421C70.2199 12.6421 67.606 9.99583 67.606 6.71354C67.606 3.43126 70.2199 0.784973 73.4265 0.784973C76.6331 0.784973 79.247 3.43126 79.247 6.71354Z" fill="white" stroke="#00A061"/>
</svg>
