<svg width="71" height="30" viewBox="0 0 71 30" fill="none" xmlns="http://www.w3.org/2000/svg">
<path d="M57.2052 30H3.65512C1.64393 30 0 28.3947 0 26.3924V3.60759C0 1.62255 1.62644 0 3.65512 0H57.1877C58.6393 0 60.0209 0.638665 60.9652 1.74338L69.5172 11.893C71.0212 13.6881 71.0212 16.2946 69.5172 18.0898L60.9477 28.2566C60.0208 29.3613 58.6567 30 57.2052 30Z" fill="#FEDC07"/>
<path d="M5.40495 13.6018C5.40495 12.5144 5.40495 11.9275 5.33499 11.0817C5.85965 10.9436 7.99326 10.6847 9.3049 10.6847C13.2923 10.6847 13.9219 12.5144 13.9219 13.878C13.9219 15.1381 13.03 16.0529 12.0856 16.519C13.8519 17.0196 14.6914 18.1933 14.6914 19.5224C14.6914 22.2152 12.3829 23.6306 9.02509 23.6306C7.92331 23.6306 6.2444 23.4407 5.40495 23.2854V13.6018ZM8.25559 16.2083C8.83271 16.1047 9.32239 16.0874 10.3018 16.0874C10.8089 15.8285 11.1762 15.2416 11.1762 14.275C11.1762 12.9804 10.3192 12.3763 9.23495 12.3763C8.90267 12.3763 8.46545 12.4108 8.25559 12.4626V16.2083ZM8.25559 21.8354C8.50043 21.9045 8.90267 21.9217 9.19997 21.9217C10.6165 21.9217 11.5609 21.1277 11.5609 19.695C11.5609 18.504 10.669 17.779 9.13002 17.779C8.81522 17.779 8.57038 17.779 8.27308 17.8136L8.25559 21.8354Z" fill="#17317F"/>
<path d="M22.9293 21.2313C22.9468 22.2152 22.0898 23.1646 21.7226 23.3372C21.4428 23.458 20.5334 23.6651 19.8863 23.6651C16.8433 23.6651 15.1644 22.0944 15.1644 19.0391C15.1644 16.6571 16.8083 14.2578 19.6065 14.2578C22.3347 14.2578 23.3315 16.1738 23.3315 17.8308C23.3315 18.1415 23.2966 18.3487 23.2441 18.504C23.1741 18.7802 22.4746 19.0909 21.5652 19.3326C21.0755 19.4707 18.8894 19.4879 17.9625 19.4534C18.1024 21.1105 19.3966 21.6283 20.6033 21.6283C21.6002 21.6283 22.5445 21.3176 22.8943 21.1795L22.9293 21.2313ZM19.3966 15.8458C18.7495 15.8458 17.9975 16.4672 17.98 17.8999C18.5047 17.9689 19.9387 17.9344 20.4809 17.8999C20.6033 17.8999 20.6908 17.6927 20.6908 17.4684C20.6908 16.588 20.341 15.8285 19.4141 15.8285H19.3966V15.8458Z" fill="#17317F"/>
<path d="M31.9878 21.7146C31.9878 22.9229 31.3931 23.6479 30.064 23.6479C29.2246 23.6479 28.63 23.2854 28.2802 22.5777C27.773 23.13 26.8811 23.6479 25.9717 23.6479C24.6426 23.6479 23.3309 22.6295 23.3309 21.0242C23.3309 19.0046 25.6044 18.435 27.2134 18.0898C27.5806 18.0207 28.0353 17.9517 28.2627 17.8999V17.6582C28.2627 16.8642 27.6856 16.2773 26.7237 16.2773C26.0242 16.2773 25.3246 16.6053 24.9224 16.7779C23.9255 17.0368 23.6457 16.191 23.6807 15.5178C24.6426 14.8792 26.1291 14.206 27.5282 14.206C29.2595 14.206 30.9909 15.2934 30.9909 17.641C30.9909 18.4695 30.9035 19.7986 30.9035 21.1623C30.9035 21.3694 31.1483 21.6283 31.638 21.6283C31.7429 21.6283 31.8828 21.6283 31.9703 21.611L31.9878 21.7146ZM26.0242 20.6444C26.0242 21.3176 26.5313 21.6974 27.1784 21.6974C27.5806 21.6974 27.7905 21.611 28.0528 21.3866C28.1753 21.2486 28.2452 21.0414 28.2452 20.6789V19.298C26.4264 19.4879 26.0416 20.1611 26.0416 20.6099V20.6444H26.0242Z" fill="#17317F"/>
<path d="M18.3643 6.68008C20.1831 6.68008 21.18 7.95741 21.18 9.45914C21.18 11.0299 20.1831 12.3418 18.3293 12.3418C16.3007 12.3418 15.4962 10.9091 15.4962 9.54545C15.4962 7.92289 16.5455 6.68008 18.3643 6.68008ZM18.2419 7.43958C17.4899 7.43958 16.8253 8.04372 16.8253 9.42462C16.8253 10.84 17.5424 11.5823 18.4168 11.5823C19.3437 11.5823 19.8508 10.8228 19.8508 9.56271C19.8508 8.38895 19.2912 7.43958 18.2419 7.43958Z" fill="#17317F"/>
<path d="M24.1181 9.87341C24.1181 9.45914 23.8733 9.18296 23.5235 9.18296C23.2262 9.18296 23.0688 9.28653 22.8939 9.40736V11.9965C22.8939 12.1519 22.8764 12.1864 22.6666 12.2209C22.3168 12.2727 22.0195 12.29 21.6347 12.29C21.6522 11.7549 21.6697 11.2198 21.6697 10.7365V9.30379C21.6697 9.0794 21.6347 8.95857 21.4948 8.87226V8.80322C21.5823 8.5443 21.9146 8.28538 22.2293 8.28538C22.5966 8.28538 22.754 8.56156 22.8065 8.83774C23.1737 8.5443 23.576 8.28538 23.9957 8.28538C25.1674 8.28538 25.3073 9.26927 25.3073 9.89067V10.9091C25.3073 11.3406 25.3248 11.8585 25.3423 12.2037C25.1499 12.2209 24.7302 12.2727 24.293 12.2727C24.1531 12.2727 24.0831 12.2209 24.0831 12.0828V9.87341H24.1181Z" fill="#17317F"/>
<path d="M29.8896 11.3579C29.9245 11.5823 29.9071 11.893 29.7322 12.0311C29.5048 12.2209 29.1201 12.3245 28.7003 12.3245C27.756 12.3245 27.4761 11.7203 27.4761 11.1507C27.4761 10.7882 27.4761 9.99423 27.4761 9.16569C27.1264 9.16569 26.9515 8.99308 26.9515 8.88951C27.0914 8.61333 27.8784 7.92288 28.0533 7.78479C28.2107 7.6467 28.403 7.54313 28.7878 7.50861C28.7528 7.75027 28.7353 8.11275 28.7353 8.38893H29.9945C29.8896 9.06212 29.6972 9.09664 29.5048 9.11391C29.3474 9.13117 28.9627 9.14843 28.7178 9.14843C28.6829 9.76983 28.6829 10.5811 28.7178 10.9263C28.7703 11.3061 28.9802 11.4787 29.2775 11.4787C29.5398 11.4787 29.7846 11.3751 29.8721 11.3406L29.8896 11.3579Z" fill="#17317F"/>
<path d="M31.375 8.76869C31.7423 8.49251 32.092 8.28538 32.5642 8.28538C33.3162 8.28538 33.8234 8.83774 33.8234 9.80436V10.9436C33.8234 11.3406 33.8234 11.8584 33.8584 12.2037C33.6485 12.2209 33.2463 12.2727 32.8091 12.2727C32.6692 12.2727 32.6167 12.2209 32.6167 12.0656C32.6167 11.3406 32.6167 10.5811 32.6167 9.85615C32.6167 9.4764 32.3893 9.18296 32.0221 9.18296C31.8122 9.18296 31.6024 9.252 31.3925 9.39009V11.962C31.3925 12.1346 31.375 12.1864 31.1651 12.2209C30.8154 12.2555 30.5355 12.2727 30.1508 12.2727C30.1683 11.7376 30.1683 11.2198 30.1683 10.7192V7.45684C30.1683 6.92174 30.1508 6.73187 30.1333 6.54199C30.2907 6.47295 30.9903 6.36938 31.2001 6.36938C31.3575 6.36938 31.375 6.4039 31.375 6.939V8.76869Z" fill="#17317F"/>
<path d="M37.532 11.2716C37.5495 11.6858 37.1823 12.1001 37.0249 12.1692C36.9025 12.2209 36.5177 12.3073 36.2379 12.3073C34.9262 12.3073 34.2092 11.6341 34.2092 10.3222C34.2092 9.3038 34.9088 8.26813 36.1155 8.26813C37.2872 8.26813 37.7069 9.09667 37.7069 9.80438C37.7069 9.92521 37.6894 10.0288 37.672 10.0978C37.637 10.2186 37.3397 10.3395 36.9549 10.443C36.7451 10.4948 35.8182 10.5121 35.4159 10.4948C35.4684 11.2025 36.028 11.4269 36.5352 11.4269C36.9724 11.4269 37.3747 11.2888 37.5146 11.2371L37.532 11.2716ZM36.0105 8.97584C35.7307 8.97584 35.4159 9.25202 35.3984 9.85616C35.6258 9.89068 36.2379 9.87342 36.4652 9.85616C36.5177 9.85616 36.5527 9.76985 36.5527 9.68355C36.5702 9.28654 36.4128 8.97584 36.0105 8.97584Z" fill="#17317F"/>
<path d="M39.8743 21.3003L39.8393 21.2313C39.3147 21.4384 38.5627 21.5938 37.6358 21.5938C36.2192 21.5938 34.89 20.748 34.89 18.7802C34.89 17.0023 35.9743 16.1565 37.3035 16.1565C37.7932 16.1565 38.4227 16.2773 38.86 16.4327C39.6644 16.4327 39.9443 15.5869 39.9268 15.0172C39.542 14.6375 38.5277 14.2232 37.1461 14.2232C34.243 14.2232 32.0044 16.2255 32.0044 19.1772C32.0044 21.87 33.8232 23.6479 36.7788 23.6479C37.1985 23.6479 37.6008 23.6133 38.003 23.527C38.2304 23.4925 38.4752 23.4235 38.7026 23.3199C38.79 23.2854 38.8774 23.2509 38.9649 23.1991C39.0348 23.1645 39.1048 23.1128 39.1748 23.061C39.8218 22.5949 39.8918 21.8872 39.8743 21.4902C39.8568 21.4384 39.8743 21.3694 39.8743 21.3003Z" fill="#17317F"/>
<path d="M60.8438 22.8884C59.8819 21.7664 58.203 20.9033 56.1568 20.5236C55.8071 20.4545 55.4573 20.42 55.09 20.3682H55.0725C54.6353 20.3164 54.1806 20.2992 53.7084 20.2992C52.5717 20.2992 51.4874 20.4373 50.5255 20.6962C50.7354 16.3464 53.4461 13.4637 53.4461 13.4465C53.7784 13.6709 54.0582 13.9988 54.2506 14.4649C54.5479 15.2244 54.408 15.8976 54.0407 16.4154C54.373 16.3636 54.7228 16.2083 55.0201 15.863C55.4573 15.3625 55.6322 14.6548 55.3698 14.0334C55.2124 13.6363 54.9151 13.3256 54.5479 13.1358C54.9676 13.2566 55.4048 13.4637 55.8071 13.7917C56.8389 14.603 57.1887 15.6386 57.0837 16.6225C57.5209 16.2428 57.8882 15.725 57.9931 14.9482C58.133 13.947 57.7833 12.9286 56.9788 12.3072C56.7165 12.1001 56.4366 11.962 56.1393 11.8584C56.1743 11.8584 56.1918 11.8584 56.2268 11.8757C57.5384 12.0311 58.3954 12.7215 58.8326 13.6191C58.99 13.1012 59.025 12.5144 58.7626 11.8584C58.3604 10.8573 57.4685 10.0978 56.3667 10.0115C55.9645 9.97697 55.5972 10.0288 55.2299 10.1496C55.2999 9.35556 55.0376 8.50976 54.303 7.78479C54.1981 7.68123 54.0757 7.59492 53.9533 7.54314C52.6241 6.90447 51.6972 7.05982 50.9802 7.47409C51.9596 7.69849 52.834 8.35441 53.2887 9.57996C53.3062 9.61448 53.3062 9.63174 53.3237 9.66626C53.1663 9.40735 52.9564 9.16569 52.6941 8.95856C51.9071 8.31989 50.8053 8.23358 49.8609 8.57881C49.1264 8.85499 48.6892 9.30378 48.4269 9.82162C49.3887 9.51091 50.473 9.61448 51.5049 10.4258C51.9246 10.7537 52.2219 11.1162 52.4318 11.496C52.1694 11.1853 51.7847 10.9781 51.3475 10.9091C50.6829 10.8055 50.0183 11.1335 49.6161 11.6686C49.3538 12.0311 49.2663 12.3935 49.2838 12.7215C49.2838 12.756 49.2663 12.7905 49.2663 12.8251C49.2663 12.8251 51.3999 11.6168 52.3618 12.7215C51.5398 13.3602 48.287 16.3291 47.0453 23.5615H48.8116H50.508H56.0344H61.0711C61.1935 23.5615 61.246 23.4235 61.1761 23.3372C61.1061 23.1818 60.9837 23.0264 60.8438 22.8884Z" fill="#17317F"/>
<path d="M46.1357 23.3544C46.2056 22.9919 46.2756 22.664 46.3456 22.336C46.9227 19.6432 47.7971 17.6064 48.654 16.1047C48.2168 14.8964 47.255 14.2405 45.9958 14.2405C44.894 14.2405 44.072 14.7065 43.2326 15.3452V11.0472C43.2326 9.82161 43.1451 9.71805 42.7954 9.71805C42.3057 9.71805 40.6793 9.97697 40.2945 10.1496C40.3295 10.5811 40.3819 11.0644 40.3819 12.29V19.9367C40.3819 21.0932 40.3645 22.3187 40.312 23.5615C41.2214 23.5615 41.886 23.5443 42.7079 23.4407C43.1801 23.3717 43.2151 23.2336 43.2151 22.8538V16.8297C43.6873 16.5017 44.177 16.3464 44.6667 16.3464C45.5236 16.3464 46.0657 17.0368 46.0657 17.9171C46.0657 19.6432 46.0657 21.3694 46.0657 23.0955C46.0832 23.1991 46.1007 23.2854 46.1357 23.3544Z" fill="#17317F"/>
</svg>
