<svg width="25" height="25" viewBox="0 0 25 25" fill="none" xmlns="http://www.w3.org/2000/svg">
<g clip-path="url(#clip0_532_6663)">
<path fill-rule="evenodd" clip-rule="evenodd" d="M6.91486 5.6095H7.75369V3.28818C7.75369 1.9627 8.8282 0.888184 10.1537 0.888184H15.4025C16.728 0.888184 17.8025 1.9627 17.8025 3.28818V5.6095H18.5851C20.0016 5.6095 21.15 6.78383 21.15 8.23245V21.2161C21.15 22.4386 20.3321 23.4658 19.2253 23.7566C19.2003 24.3859 18.6936 24.8882 18.0721 24.8882C17.478 24.8882 16.9888 24.4292 16.925 23.839H8.57499C8.5112 24.4292 8.02194 24.8882 7.42784 24.8882C6.80637 24.8882 6.29961 24.3859 6.27461 23.7566C5.16786 23.4658 4.34998 22.4386 4.34998 21.2161V8.23245C4.34998 6.78383 5.49831 5.6095 6.91486 5.6095ZM10.1537 5.6095V3.28818L15.4025 3.28818V5.6095H10.1537ZM6.91486 7.70786H18.5851C18.8684 7.70786 19.0981 7.94272 19.0981 8.23245V21.2161C19.0981 21.5058 18.8684 21.7406 18.5851 21.7406H6.91486C6.63155 21.7406 6.40188 21.5058 6.40188 21.2161V8.23245C6.40188 7.94272 6.63155 7.70786 6.91486 7.70786Z" fill="#767676"/>
<path fill-rule="evenodd" clip-rule="evenodd" d="M8.80032 9.46459C9.46306 9.46459 10.0003 10.0019 10.0003 10.6646L10.0003 18.7221C10.0003 19.3849 9.46306 19.9221 8.80032 19.9221C8.13757 19.9221 7.60032 19.3849 7.60032 18.7221L7.60032 10.6646C7.60032 10.0019 8.13758 9.46459 8.80032 9.46459Z" fill="#767676"/>
<path fill-rule="evenodd" clip-rule="evenodd" d="M12.7782 9.46459C13.441 9.46459 13.9782 10.0019 13.9782 10.6646V18.7221C13.9782 19.3849 13.441 19.9221 12.7782 19.9221C12.1155 19.9221 11.5782 19.3849 11.5782 18.7221L11.5782 10.6646C11.5782 10.0019 12.1155 9.46459 12.7782 9.46459Z" fill="#767676"/>
<path fill-rule="evenodd" clip-rule="evenodd" d="M16.6996 9.46459C17.3624 9.46459 17.8996 10.0019 17.8996 10.6646V18.7221C17.8996 19.3849 17.3624 19.9221 16.6996 19.9221C16.0369 19.9221 15.4996 19.3849 15.4996 18.7221V10.6646C15.4996 10.0019 16.0369 9.46459 16.6996 9.46459Z" fill="#767676"/>
</g>
<defs>
<clipPath id="clip0_532_6663">
<rect width="24" height="24" fill="white" transform="translate(0.75 0.888184)"/>
</clipPath>
</defs>
</svg>
