<svg width="25" height="25" viewBox="0 0 25 25" fill="none" xmlns="http://www.w3.org/2000/svg">
<g clip-path="url(#clip0_659_5256)">
<path fill-rule="evenodd" clip-rule="evenodd" d="M6.98937 5.7122C6.84847 5.58625 6.65091 5.54541 6.47162 5.60517L5.68132 5.8686C5.52981 5.91911 5.40939 6.03561 5.3539 6.18536C5.29841 6.33512 5.31383 6.50196 5.39585 6.639L10.2406 14.734L3.34938 16.5871L1.38809 14.8635C1.25812 14.7493 1.08037 14.7062 0.912514 14.7481L0.649082 14.814C0.488771 14.8541 0.356551 14.967 0.291942 15.1191C0.227333 15.2712 0.237822 15.4448 0.320273 15.588L2.82288 19.9346C2.94213 20.1418 3.18587 20.2427 3.41663 20.1805L22.713 14.9777C22.7178 14.9764 22.7225 14.975 22.7273 14.9736C23.3198 14.7959 23.7573 14.4756 24.011 14.0544C24.2641 13.6341 24.3051 13.1595 24.1861 12.7373C23.9486 11.8942 23.0693 11.2505 21.9871 11.5211C21.9836 11.522 21.9801 11.5229 21.9767 11.5238L15.4693 13.2928L6.98937 5.7122Z" fill="#767676"/>
</g>
<defs>
<clipPath id="clip0_659_5256">
<rect width="24" height="24" fill="white" transform="translate(0.25 0.888184)"/>
</clipPath>
</defs>
</svg>
