<svg width="25" height="25" viewBox="0 0 25 25" fill="none" xmlns="http://www.w3.org/2000/svg">
<g clip-path="url(#clip0_639_5224)">
<path fill-rule="evenodd" clip-rule="evenodd" d="M4.70475 10.0288C4.70475 4.58487 8.96991 2.18017 12.2178 2.18017C12.2285 2.18017 12.2392 2.18 12.2499 2.17967C12.2606 2.18 12.2713 2.18017 12.282 2.18017C15.5299 2.18017 19.7951 4.58487 19.7951 10.0288C19.7951 12.239 18.6467 14.463 16.9652 16.619C15.5759 18.4004 13.9186 20.0199 12.4457 21.4591C12.3801 21.5232 12.3148 21.587 12.2499 21.6504C12.185 21.587 12.1197 21.5232 12.0541 21.4591C10.5812 20.0199 8.9239 18.4004 7.53456 16.619C5.85308 14.463 4.70475 12.239 4.70475 10.0288ZM12.2499 24.104C11.9798 24.1125 11.7068 24.014 11.4986 23.8078C11.2331 23.5449 10.9505 23.269 10.6557 22.9811C9.18302 21.5431 7.40446 19.8063 5.92043 17.9035C4.14505 15.6271 2.6499 12.9429 2.6499 10.0288C2.6499 3.14843 8.14528 0.104492 12.2178 0.104492C12.2285 0.104492 12.2392 0.104659 12.2499 0.104989C12.2606 0.104659 12.2713 0.104492 12.282 0.104492C16.3545 0.104492 21.8499 3.14843 21.8499 10.0288C21.8499 12.9429 20.3548 15.6271 18.5794 17.9035C17.0953 19.8063 15.3173 21.5426 13.8446 22.9806C13.5498 23.2685 13.2667 23.5449 13.0012 23.8078C12.793 24.014 12.52 24.1125 12.2499 24.104Z" fill="#767676"/>
<path d="M15.8499 9.70449C15.8499 11.6927 14.2381 13.3045 12.2499 13.3045C10.2617 13.3045 8.6499 11.6927 8.6499 9.70449C8.6499 7.71627 10.2617 6.10449 12.2499 6.10449C14.2381 6.10449 15.8499 7.71627 15.8499 9.70449Z" fill="#767676"/>
</g>
<defs>
<clipPath id="clip0_639_5224">
<rect width="24" height="24" fill="white" transform="translate(0.25 0.104492)"/>
</clipPath>
</defs>
</svg>
