<svg width="24" height="24" viewBox="0 0 24 24" fill="none" xmlns="http://www.w3.org/2000/svg">
<path d="M21.1023 20.2028L21.1169 20.3624C21.2047 20.725 21.7757 21.0877 22.4492 21.1312H22.5956C22.6926 21.1312 22.7857 21.1694 22.8544 21.2374C22.923 21.3054 22.9616 21.3977 22.9616 21.4938C22.9616 21.59 22.923 21.6823 22.8544 21.7503C22.7857 21.8183 22.6926 21.8565 22.5956 21.8565C21.9459 21.8674 21.315 21.6401 20.8241 21.2182L20.7509 21.1457L20.6777 21.2182C20.297 21.5809 19.6822 21.8275 19.0526 21.8565H18.9062C18.2515 21.871 17.6147 21.6435 17.1201 21.2182L17.0615 21.1457L16.9883 21.2182C16.6077 21.5809 15.9928 21.8275 15.3633 21.8565H15.2169C14.5621 21.871 13.9254 21.6435 13.4308 21.2182L13.3722 21.1457L13.299 21.2182C12.9037 21.5809 12.3035 21.8275 11.6739 21.8565H11.5275C10.8728 21.871 10.2361 21.6435 9.74141 21.2182L9.66821 21.1457L9.60965 21.2182C9.21436 21.5809 8.61411 21.8275 7.96994 21.8565H7.82354C7.17382 21.8674 6.54294 21.6401 6.05206 21.2182L5.97886 21.1457L5.9203 21.2182C5.52501 21.5809 4.92476 21.8275 4.28059 21.8565H4.13419C3.48447 21.8674 2.85359 21.6401 2.36271 21.2182L2.27487 21.1312L2.24559 21.1602C2.08455 21.3053 1.87959 21.4503 1.65998 21.5664L1.51358 21.6244C1.46936 21.6434 1.42179 21.6537 1.37358 21.6545C1.32536 21.6553 1.27746 21.6468 1.2326 21.6292C1.18773 21.6117 1.14679 21.5856 1.11211 21.5525C1.07742 21.5193 1.04968 21.4796 1.03045 21.4358C1.01122 21.392 1.0009 21.3449 1.00006 21.2971C0.999215 21.2493 1.00788 21.2019 1.02555 21.1574C1.04323 21.113 1.06956 21.0724 1.10306 21.038C1.13655 21.0037 1.17655 20.9762 1.22077 20.9571C1.61606 20.7976 1.86495 20.551 1.90887 20.3624L1.93815 20.2173C2.01135 19.8402 2.56768 19.8402 2.64088 20.2173L2.67016 20.3624C2.74336 20.725 3.31433 21.0877 3.98778 21.1312H4.13419C4.8662 21.1312 5.52501 20.754 5.59821 20.3624L5.62749 20.2173C5.7007 19.8402 6.25703 19.8402 6.34487 20.2173V20.3624C6.43271 20.725 7.01832 21.0877 7.67713 21.1312H7.82354C8.55555 21.1312 9.21436 20.754 9.28756 20.3624L9.31684 20.2173C9.39004 19.8402 9.96101 19.8402 10.0342 20.2173V20.3624C10.1221 20.725 10.7077 21.0877 11.3811 21.1312H11.5275C12.2595 21.1312 12.9183 20.754 12.9915 20.3624L13.0062 20.2173C13.0794 19.8402 13.6504 19.8402 13.7236 20.2173L13.7382 20.3624C13.8114 20.725 14.397 21.0877 15.0558 21.1312H15.2022C15.9342 21.1312 16.6077 20.754 16.6809 20.3624L16.6955 20.2173C16.7687 19.8402 17.3397 19.8402 17.4276 20.2173V20.3624C17.5008 20.725 18.0864 21.0877 18.7452 21.1312H18.8916C19.6236 21.1312 20.297 20.754 20.3702 20.3624L20.3849 20.2173C20.4727 19.8402 21.0291 19.8402 21.1169 20.2173L21.1023 20.2028ZM22.4638 5.76944L22.5809 6.01604L22.9323 6.82837C23.0055 6.98794 22.9323 7.17651 22.8005 7.26355L22.7273 7.30707L20.5313 8.10489C20.4805 8.12648 20.4254 8.1364 20.3702 8.1339L20.2824 8.10489L19.3747 7.74224L18.9941 8.55458C18.9773 8.59751 18.9525 8.63689 18.9209 8.67062L18.8623 8.71414L18.7891 8.74315L14.6459 10.2663C14.7777 10.2663 14.8801 10.3388 14.9387 10.4403L14.9826 10.4984L17.5447 17.5192H22.5956C22.6926 17.5096 22.7896 17.5386 22.8651 17.5998C22.9406 17.661 22.9885 17.7494 22.9982 17.8456C23.0079 17.9418 22.9786 18.0378 22.9169 18.1127C22.8551 18.1875 22.7658 18.2349 22.6688 18.2445H17.2811C15.2315 18.2445 13.3576 18.6797 12.1717 19.405C12.1304 19.4298 12.0845 19.4462 12.0368 19.4534C11.989 19.4606 11.9403 19.4584 11.8934 19.447C11.8465 19.4355 11.8023 19.415 11.7634 19.3867C11.7245 19.3583 11.6916 19.3226 11.6666 19.2817C11.6416 19.2407 11.625 19.1953 11.6177 19.148C11.6105 19.1007 11.6127 19.0524 11.6242 19.0059C11.6358 18.9595 11.6565 18.9157 11.6851 18.8771C11.7137 18.8386 11.7497 18.806 11.791 18.7812C12.9915 18.0559 14.7923 17.5918 16.7687 17.5192L14.2799 10.745C14.236 10.5999 14.2799 10.4548 14.3824 10.3533L10.0781 11.949C10.0216 11.9679 9.96133 11.9729 9.90245 11.9635L9.81461 11.9345L8.9362 11.5863L8.54091 12.3986C8.51981 12.4428 8.48994 12.4823 8.45307 12.5147L8.40915 12.5582L8.33594 12.5872L6.15454 13.385C6.00814 13.4431 5.83246 13.385 5.74462 13.269L5.68606 13.1675L5.33469 12.3551C3.98778 9.23635 6.59375 6.01604 11.3811 4.14478L11.7618 3.99972L12.0546 3.91269L12.201 3.85466L12.0546 3.55004C12.008 3.46348 11.998 3.36212 12.0268 3.26827C12.0557 3.17441 12.1209 3.09575 12.2083 3.04959C12.2957 3.00342 12.398 2.99353 12.4927 3.02209C12.5874 3.05066 12.6668 3.11533 12.7134 3.2019L12.7573 3.27443L12.9037 3.63707C17.3251 2.33154 21.1023 3.02783 22.4784 5.76944H22.4638ZM13.1965 4.31885L13.2258 4.39138C13.2631 4.47319 13.2685 4.56581 13.2408 4.65131C13.2132 4.73681 13.1546 4.80912 13.0762 4.85424C12.9979 4.89937 12.9055 4.9141 12.8168 4.89559C12.7281 4.87707 12.6496 4.82664 12.5963 4.75403L12.5523 4.6815L12.4938 4.53644L12.0107 4.696C7.45753 6.37869 4.98332 9.20734 5.9203 11.8619L6.00814 12.094L6.21311 12.5872L7.92602 11.949L8.39451 10.9626C8.42172 10.9067 8.46293 10.8587 8.51419 10.8232C8.56545 10.7876 8.62505 10.7657 8.68731 10.7595H8.78979L8.86299 10.774L9.94637 11.2092L18.3938 8.1194L18.8623 7.133C18.8875 7.07446 18.9279 7.02353 18.9793 6.98533C19.0307 6.94714 19.0913 6.92302 19.1551 6.91541H19.2576L19.3308 6.94442L20.4142 7.3796L22.1124 6.75584L21.9075 6.30616C20.8387 3.79664 17.369 3.10036 13.1965 4.31885Z" fill="#1A73E8"/>
</svg>
