<svg width="24" height="24" viewBox="0 0 24 24" fill="none" xmlns="http://www.w3.org/2000/svg">
<path fill-rule="evenodd" clip-rule="evenodd" d="M3.46666 0C4.05576 0 4.53332 0.468454 4.53332 1.04632V7.52044H6.26665V1.04632C6.26665 0.468454 6.74421 0 7.33331 0C7.92241 0 8.39997 0.468454 8.39997 1.04632V7.52044H10.4V1.04632C10.4 0.468454 10.8775 0 11.4666 0C12.0557 0 12.5333 0.468454 12.5333 1.04632V7.52044C12.5333 7.82224 12.5308 8.22975 12.4844 8.67364C12.3967 9.51085 12.1411 10.6059 11.3195 11.494C10.6435 12.2245 9.68291 12.7115 8.39997 12.8813V22.9537C8.39997 23.5315 7.92241 24 7.33331 24C6.74421 24 6.26665 23.5315 6.26665 22.9537V12.8793C5.02262 12.7087 4.09382 12.2259 3.45341 11.4813C2.67928 10.5812 2.48449 9.47321 2.42618 8.63827C2.39938 8.25459 2.3997 7.8885 2.39995 7.59969C2.39998 7.57257 2.4 7.54614 2.4 7.52044V1.04632C2.4 0.468454 2.87756 0 3.46666 0ZM19.4666 14.4523V22.9537C19.4666 23.5315 19.9441 24 20.5332 24C21.1223 24 21.5999 23.5315 21.5999 22.9537V1.04632C21.5999 0.468454 21.1223 0 20.5332 0C19.3028 0 18.2535 0.344393 17.4421 1.11132C16.6614 1.84923 16.2138 2.87381 15.9371 4.01722C15.3998 6.23791 15.3998 9.42488 15.3999 13.2543L15.3999 13.406C15.3999 13.9839 15.8775 14.4523 16.4666 14.4523H19.4666Z" fill="#17317F"/>
</svg>
