<svg width="24" height="24" viewBox="0 0 24 24" fill="none" xmlns="http://www.w3.org/2000/svg">
<g clip-path="url(#clip0_450_8185)">
<path d="M2.39995 4.8C2.39995 4.13726 2.93721 3.6 3.59995 3.6H20.4C21.0627 3.6 21.6 4.13726 21.6 4.8V7.2H2.39995V4.8Z" fill="#17317F"/>
<path fill-rule="evenodd" clip-rule="evenodd" d="M4.84332 1.82609H3.80236C2.36509 1.82609 1.19995 2.99404 1.19995 4.43478V21.3913C1.19995 22.832 2.36509 24 3.80236 24H20.1975C21.6348 24 22.8 22.832 22.8 21.3913V4.43478C22.8 2.99404 21.6348 1.82609 20.1975 1.82609H19.0265V0.978261C19.0265 0.437982 18.5604 0 17.9855 0C17.4106 0 16.9445 0.437982 16.9445 0.978261V1.82609H6.92525V0.978261C6.92525 0.437982 6.4592 0 5.88429 0C5.30938 0 4.84332 0.437982 4.84332 0.978261V1.82609ZM3.28188 4.43478C3.28188 4.14663 3.51491 3.91304 3.80236 3.91304H20.1975C20.485 3.91304 20.718 4.14663 20.718 4.43478V6.3913H3.28188V4.43478ZM3.28188 8.47826V21.3913C3.28188 21.6795 3.51491 21.913 3.80236 21.913H20.1975C20.485 21.913 20.718 21.6795 20.718 21.3913V8.47826H3.28188Z" fill="#17317F"/>
</g>
<defs>
<clipPath id="clip0_450_8185">
<rect width="24" height="24" fill="white"/>
</clipPath>
</defs>
</svg>
