<svg width="24" height="24" viewBox="0 0 24 24" fill="none" xmlns="http://www.w3.org/2000/svg">
<path fill-rule="evenodd" clip-rule="evenodd" d="M6.73937 4.8238C6.59847 4.69785 6.40091 4.65701 6.22162 4.71677L5.43132 4.98021C5.27981 5.03071 5.15939 5.14721 5.1039 5.29696C5.0484 5.44672 5.06383 5.61356 5.14585 5.7506L9.99057 13.8456L3.09938 15.6987L1.13809 13.9751C1.00812 13.8609 0.830366 13.8178 0.662514 13.8597L0.399082 13.9256C0.238771 13.9657 0.106551 14.0786 0.0419418 14.2307C-0.022667 14.3828 -0.0121784 14.5564 0.0702725 14.6996L2.57288 19.0462C2.69213 19.2534 2.93587 19.3543 3.16663 19.2921L22.463 14.0893C22.4678 14.088 22.4725 14.0866 22.4773 14.0852C23.0698 13.9075 23.5073 13.5872 23.761 13.166C24.0141 12.7457 24.0551 12.2711 23.9361 11.8489C23.6986 11.0058 22.8193 10.3621 21.7371 10.6327C21.7336 10.6336 21.7301 10.6345 21.7267 10.6354L15.2193 12.4044L6.73937 4.8238Z" fill="#1A73E8"/>
</svg>
