<svg width="24" height="24" viewBox="0 0 24 24" fill="none" xmlns="http://www.w3.org/2000/svg">
<path fill-rule="evenodd" clip-rule="evenodd" d="M8.80946 17.0739C5.91108 17.0739 3.30582 18.3238 1.50113 20.3167C1.18154 20.6696 0.636356 20.6967 0.283433 20.3771C-0.0694903 20.0575 -0.0965112 19.5123 0.22308 19.1594C2.34084 16.8207 5.40396 15.3497 8.80946 15.3497C12.215 15.3497 15.2781 16.8207 17.3958 19.1594C17.7154 19.5123 17.6884 20.0575 17.3355 20.3771C16.9826 20.6967 16.4374 20.6696 16.1178 20.3167C14.3131 18.3238 11.7079 17.0739 8.80946 17.0739Z" fill="#1A73E8"/>
<path fill-rule="evenodd" clip-rule="evenodd" d="M8.80945 5.12407C6.93791 5.12407 5.42073 6.64125 5.42073 8.51278C5.42073 10.3843 6.93791 11.9015 8.80945 11.9015C10.681 11.9015 12.1982 10.3843 12.1982 8.51278C12.1982 6.64125 10.681 5.12407 8.80945 5.12407ZM3.69654 8.51278C3.69654 5.689 5.98566 3.39987 8.80945 3.39987C11.6332 3.39987 13.9224 5.689 13.9224 8.51278C13.9224 11.3366 11.6332 13.6257 8.80945 13.6257C5.98566 13.6257 3.69654 11.3366 3.69654 8.51278Z" fill="#1A73E8"/>
<path fill-rule="evenodd" clip-rule="evenodd" d="M16.506 16.2563C16.6015 15.7899 17.057 15.4891 17.5234 15.5846C19.9828 16.0878 22.1565 17.3696 23.7769 19.159C24.0965 19.5119 24.0695 20.0571 23.7166 20.3767C23.3636 20.6963 22.8185 20.6693 22.4989 20.3163C21.1176 18.791 19.2673 17.7013 17.1778 17.2738C16.7113 17.1783 16.4106 16.7228 16.506 16.2563Z" fill="#1A73E8"/>
<path fill-rule="evenodd" clip-rule="evenodd" d="M14.2453 4.32147C14.2359 3.84544 14.6142 3.45194 15.0902 3.44256C17.9134 3.38695 20.2472 5.63056 20.3028 8.45379C20.3584 11.277 18.1148 13.6108 15.2916 13.6664C14.8156 13.6758 14.4221 13.2975 14.4127 12.8215C14.4033 12.3454 14.7816 11.9519 15.2576 11.9425C17.1288 11.9057 18.6158 10.3589 18.579 8.48775C18.5421 6.61658 16.9953 5.12957 15.1242 5.16642C14.6481 5.1758 14.2546 4.7975 14.2453 4.32147Z" fill="#1A73E8"/>
</svg>
