<svg width="20" height="20" viewBox="0 0 20 20" fill="none" xmlns="http://www.w3.org/2000/svg">
<circle cx="10" cy="10" r="10" fill="#FEDC07"/>
<path d="M13.3682 4.70688C12.8711 4.70886 12.3862 4.86108 11.977 5.14356C11.5679 5.42603 11.2537 5.82556 11.0757 6.28968L5.43334 6.28822C5.31474 6.28687 5.1985 6.32146 5.09992 6.38744C5.00135 6.45342 4.92505 6.54769 4.88108 6.65785C4.8358 6.76553 4.82367 6.88426 4.84624 6.99885C4.8688 7.11343 4.92505 7.21866 5.00777 7.30108L9.14831 11.4439C9.17903 11.4748 9.21336 11.502 9.25056 11.5247C9.24028 11.5544 9.23428 11.5855 9.23274 11.6169L9.22796 16.1096L7.6079 16.108C7.51993 16.1082 7.43559 16.1432 7.37345 16.2055C7.3113 16.2678 7.27644 16.3522 7.27653 16.4402C7.27662 16.5281 7.31165 16.6125 7.37392 16.6746C7.43619 16.7367 7.52059 16.7715 7.60857 16.7713L11.5101 16.7708C11.598 16.7712 11.6824 16.7367 11.7449 16.6749C11.8074 16.6132 11.8429 16.5291 11.8435 16.4413C11.8434 16.3533 11.8084 16.269 11.7461 16.2069C11.6838 16.1448 11.5994 16.11 11.5114 16.1101L9.89138 16.1086L9.89616 11.6159C9.89532 11.585 9.88924 11.5545 9.87816 11.5257C9.91636 11.5032 9.95194 11.4764 9.98422 11.446L12.1428 9.28761C12.5144 9.50088 12.9353 9.61343 13.3638 9.61411C14.0143 9.61332 14.6381 9.35472 15.0985 8.89499C15.5589 8.43525 15.8183 7.81187 15.82 7.16145C15.8195 6.51104 15.5612 5.88746 15.1016 5.42736C14.642 4.96727 14.0187 4.70818 13.3682 4.70688ZM10.9158 6.96585L11.5792 6.96485L13.531 6.9659L12.5819 7.91189L11.7195 7.91319L11.009 7.91226L6.53556 7.90307L5.5899 6.95461L10.9158 6.96585ZM13.3565 8.96408C13.1051 8.96459 12.8566 8.91089 12.6279 8.80664L14.1264 7.3106C14.2087 7.22789 14.2646 7.12269 14.2872 7.00826C14.3097 6.89384 14.2979 6.77532 14.2531 6.66765C14.2088 6.55953 14.1333 6.46702 14.0363 6.40187C13.9392 6.33671 13.825 6.30184 13.7081 6.30165L11.7942 6.30121C11.9501 6.02265 12.1773 5.79058 12.4525 5.62882C12.7277 5.46707 13.041 5.38148 13.3602 5.38083C13.8356 5.38187 14.291 5.57145 14.6266 5.90796C14.9621 6.24448 15.1503 6.70043 15.1499 7.17573C15.1454 7.64689 14.9556 8.09743 14.6217 8.43005C14.2877 8.76267 13.8364 8.95068 13.3651 8.95345L13.3565 8.96408Z" fill="#DE1682"/>
</svg>
