<svg width="24" height="24" viewBox="0 0 24 24" fill="none" xmlns="http://www.w3.org/2000/svg">
<g clip-path="url(#clip0_450_8207)">
<path d="M1.2 12.6002C1.2 11.9375 1.73726 11.4002 2.4 11.4002H21.6C22.2627 11.4002 22.8 11.9375 22.8 12.6002V16.2002H1.2V12.6002Z" fill="#17317F"/>
<path fill-rule="evenodd" clip-rule="evenodd" d="M1.2 6.68849C1.2 5.31424 2.40883 4.2002 3.9 4.2002H10.2C10.8915 4.2002 11.5223 4.43978 12 4.83379C12.4777 4.43978 13.1085 4.2002 13.8 4.2002H20.1C21.5912 4.2002 22.8 5.31424 22.8 6.68849V10.287C23.5236 10.7334 24 11.259 24 12.1217V18.8535C24 19.3116 23.5129 19.8002 23.0159 19.8002C22.5188 19.8002 21.946 19.3116 21.946 18.8535V17.4711H2.05397V18.8535C2.05397 19.3116 1.52404 19.8002 1.02698 19.8002C0.529928 19.8002 0 19.3116 0 18.8535V12.1217C0 11.259 0.476408 10.7334 1.2 10.287V6.68849ZM21.046 11.5268H2.95397C2.45691 11.5268 2.05397 11.8982 2.05397 12.3563V15.8122H21.946V12.3563C21.946 11.8982 21.5431 11.5268 21.046 11.5268ZM10.846 9.86797V6.68849C10.846 6.23041 10.4431 5.85906 9.94603 5.85906H4.15397C3.65691 5.85906 3.25397 6.23041 3.25397 6.68849V9.86797H10.846ZM20.746 9.86797V6.68849C20.746 6.23041 20.3431 5.85906 19.846 5.85906H14.054C13.5569 5.85906 13.154 6.23041 13.154 6.68849V9.86797H20.746Z" fill="#17317F"/>
</g>
<defs>
<clipPath id="clip0_450_8207">
<rect width="24" height="24" fill="white"/>
</clipPath>
</defs>
</svg>
