<svg width="640" height="137" xmlns="http://www.w3.org/2000/svg"><g fill-rule="nonzero" fill="none"><path d="M636.34 90.96a3.6 3.6 0 100 7.2 3.6 3.6 0 000-7.2zm0 6.62a3.03 3.03 0 110-6.06 3.03 3.03 0 010 6.06zm1.17-3.64c0-.65-.47-1.04-1.15-1.04h-1.15v3.27h.57V95h.61l.59 1.18h.6l-.65-1.3c.37-.16.6-.53.57-.93zm-1.17.54h-.56V93.4h.56c.37 0 .6.2.6.54 0 .35-.23.54-.61.54zM202.9 54.56v-8.7h-13.34v51.76h13.34V66.58c0-5.62 3.6-8.38 9.23-8.38h7.3V45.86h-6.24c-4.88 0-9.12 2.54-10.29 8.7zm29.02-29.18a8.06 8.06 0 100 16.09 8.06 8.06 0 000-16.09zm-6.65 72.24h13.31V45.86h-13.3v51.76zm76.7-25.88a26.75 26.75 0 01-26.75 26.75 25.74 25.74 0 01-15.7-5.25v19.56h-13.3V45.86h13.3v4.37a25.75 25.75 0 0115.7-5.24 26.76 26.76 0 0126.75 26.75zm-13.39 0a14.53 14.53 0 10-29.08 0 14.53 14.53 0 0029.09 0zM533.3 67.2l-7.76-2.13c-5.11-1.33-7.1-2.9-7.1-5.6 0-2.63 2.8-4.47 6.8-4.47 3.81 0 6.8 2.5 6.8 5.69v.3h12.26v-.3c0-9.4-7.66-15.7-19.06-15.7-11.3 0-19.5 6.3-19.5 14.99 0 6.76 4.48 11.85 12.3 13.96l7.42 2.03c5.65 1.57 7.75 3.3 7.75 6.41 0 3.28-3.03 5.48-7.55 5.48-4.71 0-7.88-2.97-7.88-7.4v-.3h-13.02v.3c0 10.62 8.55 18.04 20.8 18.04 11.79 0 20.35-7.25 20.35-17.23 0-4.89-2.18-11.3-12.61-14.07zM349.2 45.86h13.3v51.76h-13.3v-4.38a25.75 25.75 0 01-15.71 5.25 26.76 26.76 0 010-53.5 25.75 25.75 0 0115.7 5.24v-4.37zm0 25.88a14.53 14.53 0 10-29.07.01 14.53 14.53 0 0029.07-.02zm61.36-44.3h13.3v70.18h-13.3v-4.38a25.75 25.75 0 01-15.7 5.25 26.75 26.75 0 110-53.5 25.75 25.75 0 0115.7 5.24v-22.8zm0 44.3a14.53 14.53 0 10-29.07 0 14.53 14.53 0 0029.07 0zm75.1 25.88h13.3V45.86h-13.3v51.76zm6.64-72.24a8.02 8.02 0 00-8.06 8.17 8.06 8.06 0 1016.12 0 8 8 0 00-8.05-8.17zm111.14 46.36a26.75 26.75 0 11-53.53.02 26.75 26.75 0 0153.53-.02zm-12.23 0a14.53 14.53 0 10-29.08 0 14.53 14.53 0 0029.1 0h-.02zM196.1 27.44h-51.06V39.3h18.9v58.3h13.26v-58.3h18.9V27.43zm258.18 56l-11.84-37.58h-13.98l17.76 51.76h16.02l17.86-51.76h-13.98l-11.84 37.58zm168.66-28.88v-8.7H609.6v51.76h13.34V66.58c0-5.62 3.61-8.38 9.23-8.38h7.3V45.86h-6.24c-4.88 0-9.12 2.54-10.29 8.7z" fill="#000"/><circle fill="#34E0A1" cx="68.06" cy="68.06" r="68.06"/><path d="M110.1 54.78l8.2-8.94h-18.2a56.9 56.9 0 00-64.02 0H17.82l8.21 8.94a25.11 25.11 0 1033.99 36.97l8.05 8.76 8.04-8.75a25.11 25.11 0 1033.99-36.98zM42.95 90.33a17 17 0 110-34 17 17 0 010 34zm25.11-17.48c0-11.18-8.13-20.78-18.86-24.88a49.02 49.02 0 0137.72 0c-10.72 4.1-18.85 13.7-18.85 24.88zm25.11 17.48a17 17 0 110-34 17 17 0 010 34zm0-25.9a8.9 8.9 0 100 17.82 8.9 8.9 0 000-17.82zm-41.3 8.9a8.9 8.9 0 11-17.82.01 8.9 8.9 0 0117.81-.01z" fill="#000"/></g></svg>